<svg xmlns="http://www.w3.org/2000/svg" version="1.1" xmlns:xlink="http://www.w3.org/1999/xlink" xmlns:svgjs="http://svgjs.dev/svgjs" width="1500" height="1687" viewBox="0 0 1500 1687"><g transform="matrix(1,0,0,1,0.00011015625000254659,0)"><svg viewBox="0 0 320 360" data-background-color="#444444" preserveAspectRatio="xMidYMid meet" height="1687" width="1500" xmlns="http://www.w3.org/2000/svg" xmlns:xlink="http://www.w3.org/1999/xlink"><g id="tight-bounds" transform="matrix(1,0,0,1,0.000023499999997511622,0)"><svg viewBox="0 0 320 360" height="360" width="320"><g><svg></svg></g><g><svg viewBox="0 0 320 360" height="360" width="320"><g><path transform="translate(-74.99272,-51.79039) scale(4.65793,4.65793)" d="M20.6 59.9l0.8 1-0.4-1.3c-0.1-0.6-0.8 0.1-0.4 0.3M21.5 59.3c0.3 0.5 0.6 1 0.6 1.5 0 0.7 0.6 1 1.1 1.2-0.7-0.8-1.1-3-1.7-2.7M59.9 16.9c1.7 0 3.3-0.2 5.1 0.2 4.4 1.1 8.1 3.3 10.6 6.4l7 11.2c0.3 2.8 0.9 5.9 0.8 9.3 0.7 0 0.6-1 1.4-1.2-0.8 2-1.2 4.5-1.4 7.4-0.5-1.6 0-4 0.1-5.3-0.7 1.1-1.1 0.3-1.1-0.2 0.1-0.8-0.3-0.7-0.6-1-1.1-1-1.8-2.1-2.6-3.8 0.5-1.3 0.6-3.2-1-4.2-0.5-0.3-1.1-0.8-1.4-1.6-0.4-1.1-1.1-2.4-0.9-4.1 0.1-0.5-1.5 1.1-2.4 0.4-3.9-2.7-7.8-5.8-12.5-8.4-2.5 0-4.3-0.9-5.2-2-0.8-1-0.2-2.3 1-2.4 0.7 0 1.5-0.2 2.1 0.2 0.1-0.4 0.5-0.9 1-0.9M50 14.6l0.2 0.1c1 0.2 1.5 1.6 2.6 1.1 0 0.7 0.1 1.4-0.1 1.9-0.3 0.8-1.2 0.8-1.9 0.8-6.7-0.4-10.6 2.4-14.7 4.8-1.1 0.7-2.3 1.2-3.2 2.1-4.3 4-9 7.7-10.1 15.1l-0.9 8.2c-0.1 0.9-1.1 1.8-0.9 2.9l0.7 4.9c-0.7-0.7-1.1 0.2-0.9 0.6 0.1 0.3 0.5 1.3 1.1 0.4 0.8 1.5 1.6 4.4 2.7 5.7 3.4 4 7.8 7.6 11.4 11.2 0.9-0.2 1.6-0.2 1.8-0.8 0.3 0.6-0.3 1.2-0.8 1.3 1.6 1 3.4 1.9 5.8 2.1 3.1 0.2 6 0.7 8.7 1.4 1.4-0.4 2.8-0.6 4.3-0.7 0.5 0 0.8-0.8 1.4-1l0.1-1c0.6 0.9 0.5-0.3 0.1-0.9 0.7 0.6 0.9 1.1 1.2 1.5 0-0.3 0.8-1.4 0.8-0.1l0.2-1.3c0.3-0.2 0.4 1.1 0.7 0.2 0.3-0.9 0.9-0.2 1.5-0.5-0.2 0.4-0.1 1.2 0.6 0.7l0.8-0.7c0.5 1.2 1.3 0.7 1.7 0.5 4.4-2.8 8.8-6.1 13-9.4l-0.1 1.3 0.5-1.6c0.5 0.5 0.9 0.1 1.1-0.2 0.6-1 1.4-2 2.7-2.9-1.6 4.3-3.5 7.7-5.9 10.5l-1 1.2c0 0.7-0.2 1.6-1 1.7-0.4 0.1-1.2-0.2-1.8 0.4-0.3 0.4 0.7 1.2-0.1 0.6-0.7-0.5-1.4 0-2.2 0.2-0.6 0.2 0.4 0.8 0.6 1.2 0.2 0.4 0.4 0.8 0.3 1.3l-1.1-1.2c-1.3 0.7-2.1 2-3.2 3-0.5 0.4-0.3 1.1-0.3 1.7-0.7 0-1.5-0.2-1.9 0.2-0.3 0.4-0.2 1-0.2 1.6-1-0.1-1.1-1.6-2-1.3-0.9 0.2-1.9 0.3-2.7 0.8 0.6 1.2-1 0.5-0.8 0.7-1.5-0.9-2.8-1.6-4.4-1-3.4-1.1-7.6-0.6-10.7-0.2 0-0.5 0.1-1-0.1-1.1-0.2 0.5-0.8 0.3-0.7 0.3-1.9-1.3-3.8-2.1-5.8-3.2-1.8 0.2-3.5-0.7-4-1.2-1.4-1.3-3-0.6-4.3-0.9-2.8-0.7-3.8-3.6-4.1-5.6-0.2-1-1-1.4-1.3-1.3-1.3-4.2-3.3-8-4.9-11.9-0.4-1-0.3-2-0.3-3.1 0.5 0.2 1 0.1 0.9-0.6-0.5-3.3-1.7-5.8-3-8.2 0.7-3.4 0.8-7.4 2.4-10.4 1.4-2.7 4-4.1 5.8-6.4 0.6-0.8 0.6-1.9 1.2-2.6 2-2 4-4.1 6.2-5.9 1-0.8 2.2 0 3.7-0.3 0.5-1.8 2.5-3.4 4.4-2.9 0.8 0.2 2.4-1.9 2.9-2.1 0.8-0.3 0.4 0.8 0.4 1.5 1.9-1.5 4.5-2.3 6.9-3.2" fill="#ffffff" fill-rule="nonzero" stroke="none" stroke-width="1" stroke-linecap="butt" stroke-linejoin="miter" stroke-miterlimit="10" stroke-dasharray="" stroke-dashoffset="0" font-family="none" font-weight="none" font-size="none" text-anchor="none" style="mix-blend-mode: normal" data-fill-palette-color="tertiary"></path></g><g transform="matrix(1,0,0,1,114.49214337688727,90)"><svg viewBox="0 0 91.01571324622545 180" height="180" width="91.01571324622545"><g><svg viewBox="0 0 91.01571324622545 180" height="180" width="91.01571324622545"><g><svg viewBox="0 0 135.24861878453038 267.4785541190612" height="180" width="91.01571324622545"><g transform="matrix(1,0,0,1,0,87.47855411906117)"><svg viewBox="0 0 135.24861878453038 180" height="180" width="135.24861878453038"><g id="textblocktransform"><svg viewBox="0 0 135.24861878453038 180" height="180" width="135.24861878453038" id="textblock"><g><svg viewBox="0 0 135.24861878453038 180" height="180" width="135.24861878453038"><g transform="matrix(1,0,0,1,0,0)"><svg width="135.24861878453038" viewBox="4.15 -26.65 20.4 27.15" height="180" data-palette-color="#ffffff"><path d="M6.5 0.5L6.5 0.5Q5.35 0.5 4.65-0.7L4.65-0.7Q4.15-1.75 4.15-3.55L4.15-3.55Q4.15-5 4.42-6.53 4.7-8.05 4.95-9.1L4.95-9.1Q5.55-11.5 6.13-14.38 6.7-17.25 7.08-20 7.45-22.75 7.45-24.75L7.45-24.75Q7.45-25.9 7.3-26.65L7.3-26.65Q8.65-26.6 9.55-25.8 10.45-25 10.45-23.2L10.45-23.2Q10.45-21.6 10.08-19.45 9.7-17.3 9.25-15.33 8.8-13.35 8.45-12.25L8.45-12.25Q8.1-11.15 7.6-9.35 7.1-7.55 6.7-5.63 6.3-3.7 6.2-2.1L6.2-2.1Q6.45-2.75 7.13-3.78 7.8-4.8 8.55-5.88 9.3-6.95 9.85-7.7L9.85-7.7Q11.55-10.05 13.45-12.55 15.35-15.05 17.15-17.53 18.95-20 20.38-22.28 21.8-24.55 22.55-26.45L22.55-26.45Q23.4-26.45 23.98-25.95 24.55-25.45 24.55-24.6L24.55-24.6Q24.55-24.1 24.25-23.4L24.25-23.4Q23.75-22.3 23.35-21.58 22.95-20.85 22.48-20.18 22-19.5 21.25-18.45L21.25-18.45Q20.1-16.9 18.57-14.98 17.05-13.05 15.45-11.03 13.85-9 12.43-7.2 11-5.4 10-4.13 9-2.85 8.75-2.45L8.75-2.45Q8.1-1.5 7.68-0.75 7.25 0 7.05 0.4L7.05 0.4Q6.9 0.45 6.78 0.48 6.65 0.5 6.5 0.5Z" opacity="1" transform="matrix(1,0,0,1,0,0)" fill="#ffffff" class="wordmark-text-0" data-fill-palette-color="primary" id="text-0"></path></svg></g></svg></g></svg></g></svg></g><g transform="matrix(1,0,0,1,24.57873149171271,0)"><svg viewBox="0 0 86.09115580110496 61.21223411906117" height="61.21223411906117" width="86.09115580110496"><g><svg xmlns="http://www.w3.org/2000/svg" xmlns:xlink="http://www.w3.org/1999/xlink" version="1.1" x="0" y="0" viewBox="6.857000000000001 19.324963932571265 86.28500088876392 61.35006117897454" enable-background="new 0 0 100 100" xml:space="preserve" height="61.21223411906117" width="86.09115580110496" class="icon-icon-0" data-fill-palette-color="accent" id="icon-0"><g fill="#0e78f9" data-fill-palette-color="accent"><path d="M91.648 29.694c-1.056-4.57-4.81-7.938-9.327-8.441-10.699-1.191-21.527-1.934-32.309-1.928-10.782-0.006-21.611 0.737-32.311 1.928-4.517 0.503-8.269 3.871-9.324 8.441-1.501 6.506-1.52 13.607-1.52 20.307 0 6.699 0 13.8 1.502 20.307 1.056 4.566 4.808 7.938 9.325 8.438 10.699 1.191 21.527 1.934 32.31 1.929 10.782 0.005 21.611-0.737 32.309-1.929 4.518-0.501 8.271-3.872 9.327-8.438 1.501-6.507 1.512-13.608 1.512-20.307C93.142 43.302 93.15 36.2 91.648 29.694M64.711 51.988l-20.34 10.997c-2.022 1.094-3.677 0.107-3.677-2.191V39.207c0-2.299 1.654-3.286 3.677-2.192l20.34 10.998C66.734 49.105 66.734 50.895 64.711 51.988" fill="#0e78f9" data-fill-palette-color="accent"></path></g></svg></g></svg></g><g></g></svg></g></svg></g></svg></g></svg></g><defs></defs></svg><rect width="320" height="360" fill="none" stroke="none" visibility="hidden"></rect></g></svg></g></svg>