<svg xmlns="http://www.w3.org/2000/svg" version="1.1" xmlns:xlink="http://www.w3.org/1999/xlink" xmlns:svgjs="http://svgjs.dev/svgjs" width="1500" height="1500" viewBox="0 0 1500 1500"><rect width="1500" height="1500" fill="#000000"></rect><g transform="matrix(0.6666666666666666,0,0,0.6666666666666666,249.39393939393938,627.4275352500787)"><svg viewBox="0 0 396 97" data-background-color="#000000" preserveAspectRatio="xMidYMid meet" height="367" width="1500" xmlns="http://www.w3.org/2000/svg" xmlns:xlink="http://www.w3.org/1999/xlink"><g id="tight-bounds" transform="matrix(1,0,0,1,0.2400000000000091,0.09480550712135027)"><svg viewBox="0 0 395.52 96.81038898575729" height="96.81038898575729" width="395.52"><g><svg viewBox="0 0 588.052611555943 143.93608937303114" height="96.81038898575729" width="395.52"><g transform="matrix(1,0,0,1,192.53261155594305,20.50525073148424)"><svg viewBox="0 0 395.52 102.92558791006266" height="102.92558791006266" width="395.52"><g id="textblocktransform"><svg viewBox="0 0 395.52 102.92558791006266" height="102.92558791006266" width="395.52" id="textblock"><g><svg viewBox="0 0 395.52 102.92558791006266" height="102.92558791006266" width="395.52"><g transform="matrix(1,0,0,1,0,0)"><svg width="395.52" viewBox="1.27 -34.2 132.45999999999998 34.470000000000006" height="102.92558791006266" data-palette-color="#ffffff"><path d="M15.63-7.35L15.63-7.35Q15.89-7.35 18.19-13.89 20.48-20.43 22.05-25.2 23.61-29.96 24.19-31.25L24.19-31.25Q25.51-34.2 27.47-34.2L27.47-34.2 28.05-34.2Q29.1-34.2 29.1-33.35L29.1-33.35Q29.1-32.91 27.34-27.34L27.34-27.34Q19.92-3.86 17.53-1.12L17.53-1.12Q16.85-0.34 15.41-0.34 13.96-0.34 13.27-0.92 12.57-1.49 12.07-2.61 11.57-3.74 7.47-15.84L7.47-15.84Q6.96-17.33 4.11-24.68 1.27-32.03 1.27-32.37L1.27-32.37Q1.27-33.47 3.3-33.47L3.3-33.47Q3.3-33.47 3.34-33.47L3.34-33.47Q4.57-33.47 5.62-32.32L5.62-32.32Q8.25-29.47 11.67-18.41 15.09-7.35 15.63-7.35ZM40.57-23.07Q42.48-23.8 44.13-23.8 45.77-23.8 46.88-23.28 48-22.75 49.16-22.05 50.31-21.34 50.73-21.34 51.14-21.34 53.39-22.39 55.64-23.44 57.71-23.44 59.79-23.44 61.42-22.29 63.06-21.14 63.82-19.04L63.82-19.04Q65.18-15.28 65.18-3.69L65.18-3.69Q65.18-1.29 63.71-1.29 62.23-1.29 61.64-3.36 61.06-5.42 60.48-10.55 59.91-15.67 59.32-16.89L59.32-16.89Q58.13-19.31 55.72-19.31 53.32-19.31 52.41-16.7L52.41-16.7Q51.83-14.94 51.34-8.8 50.85-2.66 50.78-2.42L50.78-2.42Q50.31-0.83 48.57-0.83 46.82-0.83 46.41-1.7 45.99-2.56 45.99-9.48 45.99-16.41 45.21-18.08 44.43-19.75 42.16-19.75L42.16-19.75Q41.06-19.75 39.71-18.82 38.35-17.9 37.71-16.33 37.06-14.77 36.72-9.8 36.37-4.83 35.91-3.23 35.45-1.64 34.08-1.64L34.08-1.64Q33.13-1.64 32.7-2.51 32.27-3.39 32.27-5.69L32.27-5.69 32.3-6.59Q32.3-7.52 32.3-8.45L32.3-8.45Q32.3-17.02 33.01-20.43L33.01-20.43Q33.42-22.41 35.15-22.41L35.15-22.41 37.84-22.02 40.57-23.07ZM82.59-14.36L82.59-14.36Q84.15-14.36 85.27-15.06L85.27-15.06Q85.88-15.45 85.88-16.63L85.88-16.63 85.88-16.77Q85.88-18.53 84.81-19.74 83.74-20.95 81.76-20.95L81.76-20.95 81.46-20.95Q79.24-20.95 77.38-19.29 75.51-17.63 75.51-15.09L75.51-15.09 75.51-14.67Q75.51-13.92 76.66-13.92L76.66-13.92 76.9-13.87 77.78-13.87 77.92-13.89 79.27-13.99 79.44-14.01 80.34-14.09Q80.51-14.11 80.73-14.14 80.95-14.16 81.62-14.26 82.29-14.36 82.59-14.36ZM81.29 0.27L81.29 0.27 80.73 0.27Q78.27 0.24 76.24-0.63L76.24-0.63Q72.36-2.34 70.99-6.49L70.99-6.49Q70.23-8.81 70.23-11.18L70.23-11.18 70.23-12.28Q70.26-14.75 71.19-17.19L71.19-17.19Q73.09-22.12 77.46-23.73L77.46-23.73Q79.51-24.46 81.66-24.46L81.66-24.46 82.2-24.46Q85.66-24.46 87.96-22.33 90.25-20.19 90.25-16.5L90.25-16.5 90.25-16.02Q90.25-13.43 88.59-12.38L88.59-12.38Q87.32-11.57 82.77-10.91 78.22-10.25 77.31-9.96L77.31-9.96Q75.85-9.5 75.85-8.62L75.85-8.62Q75.85-6.4 78.07-4.91L78.07-4.91Q79.37-4.05 82.1-4.05L82.1-4.05Q83.22-4.05 85.6-4.72 87.98-5.4 88.59-5.4L88.59-5.4Q90.03-5.4 90.03-3.93 90.03-2.47 87.24-1.1 84.44 0.27 81.29 0.27ZM107.49-14.36L107.49-14.36Q109.05-14.36 110.17-15.06L110.17-15.06Q110.78-15.45 110.78-16.63L110.78-16.63 110.78-16.77Q110.78-18.53 109.71-19.74 108.64-20.95 106.66-20.95L106.66-20.95 106.36-20.95Q104.14-20.95 102.28-19.29 100.41-17.63 100.41-15.09L100.41-15.09 100.41-14.67Q100.41-13.92 101.56-13.92L101.56-13.92 101.8-13.87 102.68-13.87 102.82-13.89 104.17-13.99 104.34-14.01 105.24-14.09Q105.41-14.11 105.63-14.14 105.85-14.16 106.52-14.26 107.19-14.36 107.49-14.36ZM106.19 0.27L106.19 0.27 105.63 0.27Q103.17 0.24 101.14-0.63L101.14-0.63Q97.26-2.34 95.89-6.49L95.89-6.49Q95.13-8.81 95.13-11.18L95.13-11.18 95.13-12.28Q95.16-14.75 96.09-17.19L96.09-17.19Q97.99-22.12 102.36-23.73L102.36-23.73Q104.41-24.46 106.56-24.46L106.56-24.46 107.1-24.46Q110.56-24.46 112.86-22.33 115.15-20.19 115.15-16.5L115.15-16.5 115.15-16.02Q115.15-13.43 113.49-12.38L113.49-12.38Q112.22-11.57 107.67-10.91 103.12-10.25 102.21-9.96L102.21-9.96Q100.75-9.5 100.75-8.62L100.75-8.62Q100.75-6.4 102.97-4.91L102.97-4.91Q104.26-4.05 107-4.05L107-4.05Q108.12-4.05 110.5-4.72 112.88-5.4 113.49-5.4L113.49-5.4Q114.93-5.4 114.93-3.93 114.93-2.47 112.14-1.1 109.34 0.27 106.19 0.27ZM124.76-2.75Q123.04-5.32 123.04-11.18 123.04-17.04 122.33-19.17L122.33-19.17Q122.04-20.04 121.17-20.73 120.3-21.41 120.3-22.56 120.3-23.71 121.23-24.41L121.23-24.41Q121.43-24.56 122.16-24.99 122.89-25.42 123.13-25.78L123.13-25.78Q123.38-26.12 123.65-28.13L123.65-28.13Q124.23-32.13 125.8-32.13L125.8-32.13 126.16-32.13Q127.41-32.13 127.92-31.13L127.92-31.13Q128.19-30.64 128.47-28.54 128.75-26.44 129.24-25.79 129.73-25.15 131.73-24.44 133.73-23.73 133.73-22.72 133.73-21.7 132.09-21.19L132.09-21.19Q129.65-20.43 129.16-19.48L129.16-19.48Q128.02-17.26 128.02-10.52L128.02-10.52Q128.02-7.4 128.73-6.24 129.43-5.08 130.7-4.59L130.7-4.59Q130.82-4.54 131.72-4.28 132.61-4.03 133.14-3.63 133.68-3.22 133.68-2.31 133.68-1.39 132.8-0.78L132.8-0.78Q131.87-0.17 130.21-0.17L130.21-0.17Q126.48-0.17 124.76-2.75Z" opacity="1" transform="matrix(1,0,0,1,0,0)" fill="#ffffff" class="wordmark-text-0" data-fill-palette-color="primary" id="text-0"></path></svg></g></svg></g></svg></g></svg></g><g><svg viewBox="0 0 143.93608937303114 143.93608937303114" height="143.93608937303114" width="143.93608937303114"><g><svg></svg></g><g id="icon-0"><svg viewBox="0 0 143.93608937303114 143.93608937303114" height="143.93608937303114" width="143.93608937303114"><g><path d="M0 71.968c0-39.747 32.221-71.968 71.968-71.968 39.747 0 71.968 32.221 71.968 71.968 0 39.747-32.221 71.968-71.968 71.968-39.747 0-71.968-32.221-71.968-71.968zM71.968 134.654c34.621 0 62.686-28.066 62.686-62.686 0-34.621-28.066-62.686-62.686-62.686-34.621 0-62.686 28.066-62.686 62.686 0 34.621 28.066 62.686 62.686 62.686z" data-fill-palette-color="tertiary" fill="#ffffff" stroke="transparent"></path></g><g transform="matrix(1,0,0,1,33.83470560881809,44.85461058698634)"><svg viewBox="0 0 76.26667815539496 54.22686819905845" height="54.22686819905845" width="76.26667815539496"><g><svg xmlns="http://www.w3.org/2000/svg" xmlns:xlink="http://www.w3.org/1999/xlink" version="1.1" x="0" y="0" viewBox="6.857000000000001 19.324963932571265 86.28500088876392 61.35006117897454" enable-background="new 0 0 100 100" xml:space="preserve" height="54.22686819905845" width="76.26667815539496" class="icon-cg-0" data-fill-palette-color="accent" id="cg-0"><g fill="#0e78f9" data-fill-palette-color="accent"><path d="M91.648 29.694c-1.056-4.57-4.81-7.938-9.327-8.441-10.699-1.191-21.527-1.934-32.309-1.928-10.782-0.006-21.611 0.737-32.311 1.928-4.517 0.503-8.269 3.871-9.324 8.441-1.501 6.506-1.52 13.607-1.52 20.307 0 6.699 0 13.8 1.502 20.307 1.056 4.566 4.808 7.938 9.325 8.438 10.699 1.191 21.527 1.934 32.31 1.929 10.782 0.005 21.611-0.737 32.309-1.929 4.518-0.501 8.271-3.872 9.327-8.438 1.501-6.507 1.512-13.608 1.512-20.307C93.142 43.302 93.15 36.2 91.648 29.694M64.711 51.988l-20.34 10.997c-2.022 1.094-3.677 0.107-3.677-2.191V39.207c0-2.299 1.654-3.286 3.677-2.192l20.34 10.998C66.734 49.105 66.734 50.895 64.711 51.988" fill="#ffffff" data-fill-palette-color="accent"></path></g></svg></g></svg></g></svg></g></svg></g></svg></g><defs></defs></svg><rect width="395.52" height="96.81038898575729" fill="none" stroke="none" visibility="hidden"></rect></g></svg></g></svg>